<svg xmlns="http://www.w3.org/2000/svg" width="1024" height="1024" viewBox="0 0 1024 1024">
  <defs>
    <radialGradient id="bg" cx="50%" cy="40%" r="75%">
      <stop offset="0%" stop-color="#1f2b44" />
      <stop offset="100%" stop-color="#0b1220" />
    </radialGradient>
    <filter id="shadow" x="-20%" y="-20%" width="140%" height="140%">
      <feDropShadow dx="0" dy="18" stdDeviation="12" flood-color="#000000" flood-opacity="0.45" />
    </filter>
  </defs>

  <rect width="1024" height="1024" rx="220" fill="url(#bg)" />

  <g opacity="0.2" fill="#8db5ff">
    <circle cx="120" cy="120" r="4"/><circle cx="200" cy="160" r="4"/><circle cx="280" cy="120" r="4"/>
    <circle cx="840" cy="140" r="4"/><circle cx="900" cy="220" r="4"/><circle cx="820" cy="300" r="4"/>
    <circle cx="140" cy="820" r="4"/><circle cx="210" cy="900" r="4"/><circle cx="320" cy="860" r="4"/>
    <circle cx="760" cy="820" r="4"/><circle cx="860" cy="900" r="4"/><circle cx="920" cy="820" r="4"/>
  </g>

  <polygon filter="url(#shadow)"
    points="512,124 586,214 704,162 690,286 810,292 726,384 842,438 734,508 828,592 706,618 766,730 644,700 658,824 544,764 500,878 432,768 340,846 334,722 222,768 270,652 156,626 248,544 138,474 244,420 160,322 282,320 256,196 372,244 430,140"
    fill="#2450d4" stroke="#101521" stroke-width="22" />

  <polygon
    points="512,198 568,268 660,228 648,322 744,328 678,398 768,442 686,500 760,566 664,586 712,674 616,650 626,746 536,700 498,788 444,704 370,764 366,668 276,706 314,616 224,596 296,534 208,484 294,438 230,360 326,358 306,264 396,304 442,210"
    fill="#f0ea44" stroke="#101521" stroke-width="16" />

  <g transform="translate(96 650) rotate(-8)">
    <text x="0" y="0"
      font-family="Impact, Haettenschweiler, 'Arial Black', sans-serif"
      font-size="212"
      font-weight="900"
      fill="#ff3a31"
      stroke="#101521"
      stroke-width="18"
      paint-order="stroke fill">
      RONGOE!
    </text>
  </g>
</svg>
